PathFileType	4	(X/Y/Z)	C:\Users\preethimanoharan\Documents\OpenSim\4.3\Models\Opensim Spine models\FBLS model Full body musculoskeletal model of lumar spine\Ha Pilot data\test_data_markers.trc
DataRate	CameraRate	NumFrames	NumMarkers	Units	OrigDataRate	OrigDataStartFrame	OrigNumFrames
100.000000	100.000000	5	41	mm	100.000000	1622	1854
Frame#	Time	RFHD			LFHD			LBHD			RBHD			LSHO			LUPA			LELB			LFRM			LWRA			LWRB			LFIN			RSHO			RUPA			RELB			RFRM			RWRA			RWRB			RFIN			LTHI			LKNE			LTIB			LANK			LHEE			LTOE			LMT5			RTHI			RKNE			RTIB			RANK			RHEE			RTOE			RMT5			CLAV			STRN			LASI			RASI			C7			LPSI			RPSI			RBAK			T10			
		X1	Y1	Z1	X2	Y2	Z2	X3	Y3	Z3	X4	Y4	Z4	X5	Y5	Z5	X6	Y6	Z6	X7	Y7	Z7	X8	Y8	Z8	X9	Y9	Z9	X10	Y10	Z10	X11	Y11	Z11	X12	Y12	Z12	X13	Y13	Z13	X14	Y14	Z14	X15	Y15	Z15	X16	Y16	Z16	X17	Y17	Z17	X18	Y18	Z18	X19	Y19	Z19	X20	Y20	Z20	X21	Y21	Z21	X22	Y22	Z22	X23	Y23	Z23	X24	Y24	Z24	X25	Y25	Z25	X26	Y26	Z26	X27	Y27	Z27	X28	Y28	Z28	X29	Y29	Z29	X30	Y30	Z30	X31	Y31	Z31	X32	Y32	Z32	X33	Y33	Z33	X34	Y34	Z34	X35	Y35	Z35	X36	Y36	Z36	X37	Y37	Z37	X38	Y38	Z38	X39	Y39	Z39	X40	Y40	Z40	X41	Y41	Z41	

1623	16.22	1088.935791015625	1569.901977539062	-822.5364990234374	951.3309936523438	1578.501586914062	-824.3991699218749	956.4130859375	1672.40576171875	-719.4727783203124	1090.42626953125	1671.410888671875	-735.5615844726561	898.4901123046875	1465.880859375	-569.1862792968749	737.32275390625	1453.486572265625	-619.0294799804686	583.268310546875	1427.39599609375	-614.8541870117186	488.4678649902344	1452.730102539062	-635.4997558593749	362.8767395019531	1463.04931640625	-727.1459350585936	349.4839477539062	1451.609619140625	-662.8767089843749	278.2123413085938	1456.631591796875	-706.0670776367186	1147.158935546875	1473.60107421875	-571.4291381835936	1323.306884765625	1406.857666015625	-581.9408569335936	nan	nan	nan	1596.389404296875	1421.391967773438	-623.9526977539061	1689.579223632812	1444.758666992188	-701.4104003906249	1691.818969726562	1406.672241210938	-646.4893188476561	1766.358642578125	1426.397094726562	-671.7803344726561	845.4972534179688	621.9984130859375	-651.8197631835938	859.6802368164062	473.2671813964844	-632.2114868164062	838.6246337890625	261.4123840332032	-582.7550048828125	848.1708984375	77.77491760253909	-566.611572265625	893.9810180664062	40.62179946899417	-521.5223999023438	875.3963012695312	46.70224761962895	-700.112060546875	820.4459838867188	20.64403343200688	-668.5333862304688	1214.423950195312	615.4418334960938	-654.1604614257812	1204.600463867188	475.9631347656251	-638.9037475585938	1233.095703125	339.2576293945313	-586.6344604492188	1195.686401367188	80.21976470947268	-558.8832397460938	1153.492797851562	49.27628707885745	-518.178466796875	1171.396362304688	51.12598419189457	-683.3560791015625	1240.161987304688	18.35092163085941	-648.6856079101562	1021.794494628906	1416.201293945312	-700.4806518554686	1028.8935546875	1251.759521484375	-755.7963867187499	908.5431518554688	958.8347778320312	-737.2363281249999	1152.958374023438	966.2935791015625	-719.7786865234374	1023.956420898438	1503.675048828125	-579.2410278320311	960.0285034179688	1003.961608886719	-582.3684082031249	1080.725952148438	999.4823608398438	-574.9252929687499	1106.730102539062	1315.795288085938	-527.4674072265624	1028.046264648438	1107.723876953125	-585.6825561523436	
1624	16.23	1090.764526367188	1572.608032226562	-821.7288208007811	953.8187866210938	1577.908569335938	-827.0792846679686	956.2990112304688	1672.3662109375	-719.5504760742186	1090.310546875	1671.39208984375	-735.7025146484374	896.4061889648438	1466.717529296875	-569.8026733398436	737.3169555664062	1453.533935546875	-619.1203613281249	583.3062744140625	1427.52197265625	-614.8674316406249	488.5198669433594	1452.900512695312	-635.6420288085936	362.3551025390625	1463.61181640625	-727.0481567382811	349.5003662109375	1451.78662109375	-662.9014892578124	278.5608520507812	1456.65234375	-706.4305419921874	1147.127319335938	1473.598876953125	-571.5424194335936	1323.280639648438	1407.0185546875	-582.0474853515624	nan	nan	nan	1596.415893554688	1421.639526367188	-624.0504150390624	1689.49658203125	1445.058227539062	-701.4757690429686	1691.774047851562	1407.013549804688	-646.6530761718749	1766.323364257812	1426.734741210938	-671.8898315429686	845.4998779296875	622.0310668945312	-651.7805786132812	859.7144775390625	473.3154602050782	-632.2333984375	838.6958618164062	261.3626403808594	-582.75439453125	848.236083984375	77.73456573486331	-566.6281127929688	893.9683227539062	40.61918258666995	-521.5469970703125	875.3666381835938	46.68461227416996	-700.0767211914062	820.4119262695312	20.66348075866703	-668.47412109375	1214.472290039062	615.4126586914062	-654.1377563476562	1204.686401367188	475.9485778808594	-638.89208984375	1233.128173828125	339.2535400390626	-586.625	1195.632080078125	80.21555328369143	-558.8653564453125	1153.07470703125	49.3598327636719	-517.8618774414062	1171.355346679688	51.10598754882817	-683.3275756835938	1240.1767578125	18.39835929870609	-648.659423828125	1021.692016601562	1416.197265625	-700.5180053710936	1028.907592773438	1251.693481445312	-755.7068481445311	908.567138671875	958.7532958984375	-737.1737670898436	1153.027954101562	966.2374267578125	-719.7437133789061	1023.797302246094	1503.608520507812	-579.3516235351561	960.0680541992188	1003.948547363281	-582.3604125976561	1080.74609375	999.483154296875	-574.9403686523436	1106.767822265625	1315.895141601562	-527.3978881835936	1028.104736328125	1107.662231445312	-585.6480102539061	
1625	16.24	1088.212036132812	1571.310424804688	-823.3941650390624	950.97119140625	1578.591796875	-824.5582275390624	956.2783203125	1672.396728515625	-719.6463012695311	1090.153564453125	1671.443359375	-735.8396606445311	896.3877563476562	1466.60546875	-569.9750976562499	737.2921142578125	1453.564453125	-619.1841430664061	583.2695922851562	1427.678833007812	-614.9702758789061	488.533203125	1453.101196289062	-635.7378540039061	362.3716430664062	1463.85986328125	-727.1994628906249	349.4898376464844	1452.094116210938	-662.9942626953124	278.5819702148438	1456.970947265625	-706.5480346679686	1147.114501953125	1473.656005859375	-571.7100219726561	1323.286865234375	1407.193115234375	-582.1496582031249	nan	nan	nan	1596.431518554688	1421.898193359375	-624.1631469726561	1689.462890625	1445.398071289062	-701.6155395507811	1691.776611328125	1407.355224609375	-646.7283935546874	1766.361328125	1427.1162109375	-671.9772949218749	845.6231079101562	621.8885498046875	-651.7891845703125	859.8670043945312	473.2162170410157	-632.1732788085938	838.7264404296875	261.3955078125001	-582.7680053710938	848.1543579101562	77.80271911621097	-566.5604858398438	894.0144653320312	40.60041809082034	-521.4912719726562	875.40380859375	46.70263290405278	-700.0731201171875	820.447509765625	20.66039466857914	-668.492431640625	1214.530029296875	615.3884887695312	-654.1021118164062	1204.69970703125	475.9259338378907	-638.8629150390625	1233.121826171875	339.1609191894532	-586.5740356445312	1195.66845703125	80.20228576660159	-558.8613891601562	1153.535522460938	49.23266983032229	-518.1780395507812	1171.364624023438	51.09797286987309	-683.3444213867188	1240.14990234375	18.35884284973148	-648.6421508789062	1021.717895507812	1416.226684570312	-700.6754760742186	1028.978515625	1251.573120117188	-755.6881103515624	908.8411865234375	959.0304565429688	-737.3645629882811	1153.143798828125	966.260009765625	-719.7537231445311	1023.822448730469	1503.606567382812	-579.4526367187499	960.176025390625	1003.932678222656	-582.3640136718749	1080.81201171875	999.4270629882812	-574.8872070312499	1106.840698242188	1315.93408203125	-527.4021606445311	1028.209716796875	1107.679931640625	-585.5871582031249	
1626	16.25	1090.559936523438	1572.69677734375	-822.0697631835936	950.7320556640625	1578.600463867188	-824.6371459960936	956.0703735351562	1672.455444335938	-719.7727661132811	1090.045776367188	1671.43408203125	-736.0936279296874	896.1570434570312	1466.575927734375	-570.3516235351561	737.278076171875	1453.647338867188	-619.3438110351561	583.1973876953125	1427.813720703125	-615.0638427734374	488.4997253417969	1453.351684570312	-635.8513183593749	362.6973266601562	1463.5859375	-729.1450195312499	349.4884033203125	1452.352294921875	-663.2304077148436	278.2224426269531	1457.68310546875	-706.4808959960936	1148.35546875	1473.62451171875	-573.9875488281249	1323.270874023438	1407.421752929688	-582.3211059570311	nan	nan	nan	1596.344970703125	1422.258544921875	-624.3065185546874	1689.456787109375	1445.752319335938	-701.7728271484374	1691.782348632812	1407.697143554688	-646.8507080078124	1766.333374023438	1427.479614257812	-672.1049804687499	845.6396484375	621.9724731445312	-651.7677001953125	859.864013671875	473.2465515136719	-632.2125244140625	838.7005615234375	261.3682556152344	-582.7451171875	848.1629028320312	77.80921173095706	-566.6193237304688	893.9442138671875	40.58473968505862	-521.512451171875	875.4346313476562	46.71806335449223	-700.1165161132812	820.3619995117188	20.66645812988286	-668.495361328125	1214.619995117188	615.430419921875	-654.0560302734375	1204.246459960938	476.4933776855469	-639.2175903320312	1232.640747070312	339.7222595214844	-586.9864501953125	1195.619873046875	80.15043640136722	-558.8548583984375	1153.48046875	49.24056243896487	-518.1638793945312	1171.322143554688	51.05173492431645	-683.3338623046875	1240.19287109375	18.38670349121098	-648.6647338867188	1021.827819824219	1416.27490234375	-700.8737182617186	1029.005615234375	1251.495361328125	-755.6152954101561	908.699462890625	958.7511596679688	-737.2244262695311	1153.248413085938	966.2098999023438	-719.7309570312499	1023.7265625	1503.635131835938	-579.6298217773436	960.004150390625	1003.550048828125	-582.8905639648436	1080.914184570312	999.4389038085938	-574.9573364257811	1106.945556640625	1316.055541992188	-527.5307006835936	1028.28662109375	1107.642700195312	-585.5984497070311	
1627	16.26	1090.14697265625	1572.673828125	-822.2570800781249	950.64599609375	1578.635131835938	-824.8058471679686	955.9436645507812	1672.562377929688	-719.8024902343749	1089.932495117188	1671.429077148438	-736.2537231445311	896.4827270507812	1466.728271484375	-569.9764404296874	737.2718505859375	1453.731079101562	-619.4918823242186	583.2614135742188	1427.995361328125	-615.1897583007811	488.5149230957031	1453.584350585938	-635.9593505859374	362.3429870605469	1464.33251953125	-727.5014648437499	349.4612121582031	1452.705444335938	-663.2109374999999	278.2563781738281	1458.062133789062	-706.6192626953124	1148.340454101562	1473.721435546875	-574.1273193359374	1323.273193359375	1407.632568359375	-582.4630126953124	nan	nan	nan	1596.3720703125	1422.619140625	-624.3421630859374	1689.453002929688	1446.1396484375	-701.8515624999999	1691.85302734375	1408.129760742188	-646.8988037109374	1766.388305664062	1427.948974609375	-672.2096557617186	845.7582397460938	621.9541015625	-651.8501586914062	860.0032958984375	473.2598266601563	-632.3177490234375	838.7839965820312	261.4564514160157	-582.7543334960938	848.1766357421875	77.89318847656253	-566.588623046875	894.0236206054688	40.62591934204104	-521.4756469726562	875.4091796875	46.69321823120121	-700.0675048828125	820.4676513671875	20.69344520568852	-668.55615234375	1214.71875	615.4373779296875	-653.9574584960938	1204.224487304688	476.4893798828126	-639.2218017578125	1232.580932617188	339.6768493652344	-586.9686889648438	1195.655029296875	80.17117309570315	-558.8402709960938	1153.087036132812	49.3405570983887	-517.8365478515625	1171.346435546875	51.07577514648442	-683.3215942382812	1240.04443359375	18.26403617858891	-648.6693725585938	1021.795959472656	1416.19677734375	-700.8778076171874	1029.081298828125	1251.405639648438	-755.5266723632811	908.73828125	959.0514526367188	-737.0969848632811	1153.340209960938	966.2398681640625	-719.7316284179686	1023.731872558594	1503.665283203125	-579.7465820312499	960.114990234375	1003.577209472656	-582.8171386718749	1081.065673828125	999.4551391601562	-574.9347534179686	1106.94677734375	1316.105102539062	-527.5574951171874	1028.358520507812	1107.638305664062	-585.4802246093749	
